<svg xmlns="http://www.w3.org/2000/svg" width="180.998" height="204" viewBox="0 0 180.998 204">
  <g id="Group_186" data-name="Group 186" transform="translate(-1576.002 -89.002)">
    <path id="Union_1" data-name="Union 1" d="M-3526,22010a11,11,0,0,1-11-11v-158a11,11,0,0,1,11-11h69.619l10.382-24,10.386,24H-3367a11,11,0,0,1,11,11v158a11,11,0,0,1-11,11Z" transform="translate(5113.002 -21717)" fill="#fff"/>
    <text id="Main_Office" data-name="Main Office" transform="translate(1595.873 142)" fill="#f25d0e" font-size="16" font-family="Montserrat-SemiBold, Montserrat" font-weight="600"><tspan x="0" y="0">Main Office</tspan></text>
    <text id="Property_Team" data-name="Property Team" transform="translate(1595.873 198)" fill="#f25d0e" font-size="16" font-family="Montserrat-SemiBold, Montserrat" font-weight="600"><tspan x="0" y="0">Property Team</tspan></text>
    <text id="Finance_Team" data-name="Finance Team" transform="translate(1598.873 254)" fill="#f25d0e" font-size="16" font-family="Montserrat-SemiBold, Montserrat" font-weight="600"><tspan x="0" y="0">Finance Team</tspan></text>
    <text id="_0123_456_789" data-name="0123 456 789" transform="translate(1595.873 166)" fill="#293135" font-size="16" font-family="Montserrat-Regular, Montserrat"><tspan x="0" y="0">0123 456 789</tspan></text>
    <text id="_0122_333_456" data-name="0122 333 456" transform="translate(1595.873 222)" fill="#293135" font-size="16" font-family="Montserrat-Regular, Montserrat"><tspan x="0" y="0">0122 333 456</tspan></text>
    <text id="_0133_123_456" data-name="0133 123 456" transform="translate(1598.873 278)" fill="#293135" font-size="16" font-family="Montserrat-Regular, Montserrat"><tspan x="0" y="0">0133 123 456</tspan></text>
  </g>
</svg>
