<svg xmlns="http://www.w3.org/2000/svg" width="225.496" height="64" viewBox="0 0 225.496 64">
  <g id="Group_207" data-name="Group 207" transform="translate(-1656.504 -32)">
    <g id="Ellipse_101" data-name="Ellipse 101" transform="translate(1818 32)" fill="none" stroke="#fc7753" stroke-width="1">
      <circle cx="32" cy="32" r="32" stroke="none"/>
      <circle cx="32" cy="32" r="31.5" fill="none"/>
    </g>
    <g id="Group_149" data-name="Group 149" transform="translate(1825.189 39.189)">
      <circle id="Ellipse_100" data-name="Ellipse 100" cx="25" cy="25" r="25" transform="translate(-0.19 -0.19)" fill="#fc7753"/>
      <g id="Group_148" data-name="Group 148" transform="translate(14.217 17.488)">
        <line id="Line_45" data-name="Line 45" x2="20.34" fill="none" stroke="#fff" stroke-linecap="round" stroke-width="3"/>
        <line id="Line_46" data-name="Line 46" x2="20.34" transform="translate(0 7.837)" fill="none" stroke="#fff" stroke-linecap="round" stroke-width="3"/>
        <line id="Line_47" data-name="Line 47" x2="20.34" transform="translate(0 15.674)" fill="none" stroke="#fff" stroke-linecap="round" stroke-width="3"/>
      </g>
    </g>
    <path id="phone-flip-solid" d="M.778,14.449l4.449-1.908a1.275,1.275,0,0,1,1.495.368l1.808,2.207a14.345,14.345,0,0,0,6.54-6.54L12.863,6.77a1.285,1.285,0,0,1-.368-1.5L14.4.826A1.286,1.286,0,0,1,15.87.083L20,1.037A1.274,1.274,0,0,1,21,2.286,18.779,18.779,0,0,1,2.237,21.045a1.274,1.274,0,0,1-1.249-.993L.035,15.919A1.29,1.29,0,0,1,.778,14.449Z" transform="translate(1757.244 53.949)" fill="#03363d"/>
    <path id="file-arrow-up-solid" d="M10.5,0V5.249h5.249ZM9.185,5.249V0H1.968A1.968,1.968,0,0,0,0,1.968V19.026a1.968,1.968,0,0,0,1.968,1.968H13.778a1.968,1.968,0,0,0,1.968-1.968V6.561H10.534A1.319,1.319,0,0,1,9.185,5.249Zm2.628,8.861a.769.769,0,0,1-.66.324.977.977,0,0,1-.7-.288l-1.6-1.6V16.73a.984.984,0,1,1-1.968,0V12.543l-1.6,1.6A.984.984,0,1,1,3.9,12.752l3.28-3.28a.984.984,0,0,1,1.392,0l3.28,3.28A.917.917,0,0,1,11.814,14.11Z" transform="translate(1709 54)" fill="#03363d"/>
    <path id="magnifying-glass-solid_2_" data-name="magnifying-glass-solid (2)" d="M20.513,18.192l-4.908-4.908a8.528,8.528,0,1,0-2.32,2.322l4.908,4.908a1.641,1.641,0,0,0,2.32-2.322ZM3.244,8.528a5.248,5.248,0,1,1,5.248,5.248A5.254,5.254,0,0,1,3.244,8.528Z" transform="translate(1656.503 53.998)" fill="#03363d"/>
  </g>
</svg>
